<svg xmlns="http://www.w3.org/2000/svg" viewBox="0 0 800 500" fill="none" aria-hidden="true">
  <defs>
    <linearGradient id="s-bg" x1="0" y1="0" x2="1" y2="1">
      <stop offset="0%" stop-color="#fdfbf7"/>
      <stop offset="100%" stop-color="#f5ecd8"/>
    </linearGradient>
    <linearGradient id="s-leaf" x1="0" y1="0" x2="1" y2="1">
      <stop stop-color="#d4b07a"/>
      <stop offset="1" stop-color="#b8915a"/>
    </linearGradient>
  </defs>
  <rect width="800" height="500" rx="24" fill="url(#s-bg)"/>
  <ellipse cx="620" cy="120" rx="200" ry="160" fill="#d1ab6d" fill-opacity="0.12"/>
  <ellipse cx="140" cy="380" rx="220" ry="140" fill="#c9a066" fill-opacity="0.1"/>
  <g stroke="#b8915a" stroke-opacity="0.28" stroke-width="1.2" fill="none" stroke-linecap="round">
    <path d="M80 160 Q 200 100, 320 140 T 520 120"/>
    <path d="M100 420 Q 280 360, 420 400"/>
  </g>
  <g transform="translate(320 140)">
    <path d="M80 200c-20-80 20-160 100-180s160 40 180 120-20 160-100 200c-40 20-100 20-140 0-20-10-35-25-40-40" fill="url(#s-leaf)" fill-opacity="0.38"/>
    <path d="M80 200 Q 120 120 180 80 T 280 100" stroke="#a67c43" stroke-width="2" stroke-opacity="0.45" fill="none"/>
    <circle cx="180" cy="160" r="28" fill="#fffefb" fill-opacity="0.75"/>
    <path d="M168 160h24M180 148v24" stroke="#cca86a" stroke-width="2.5" stroke-linecap="round" stroke-opacity="0.55"/>
  </g>
  <g transform="translate(480 260)" stroke="#8f6a3d" stroke-opacity="0.38" stroke-width="1.5" fill="none">
    <rect x="0" y="40" width="160" height="100" rx="8"/>
    <path d="M24 68h112M24 92h80M24 116h96"/>
    <path d="M40 40V20h80v20" stroke-linecap="round"/>
    <circle cx="130" cy="24" r="6" fill="#d1ab6d" fill-opacity="0.45" stroke="none"/>
  </g>
  <path d="M120 280 L 120 380 Q 120 400 140 400 L 240 400" stroke="#cca86a" stroke-width="2" stroke-opacity="0.22" fill="none" stroke-linecap="round"/>
  <circle cx="120" cy="260" r="36" fill="#d4b07a" fill-opacity="0.2"/>
  <path d="M120 244v32M104 260h32" stroke="#a67c43" stroke-width="2" stroke-opacity="0.4" stroke-linecap="round"/>
</svg>
